<svg width="20" height="20" viewBox="0 0 20 20" fill="none" xmlns="http://www.w3.org/2000/svg">
<path fill-rule="evenodd" clip-rule="evenodd" d="M10.0003 18.3337C6.07195 18.3337 4.10777 18.3337 2.88738 17.1133C1.66699 15.8929 1.66699 13.9287 1.66699 10.0003C1.66699 6.07195 1.66699 4.10777 2.88738 2.88738C4.10777 1.66699 6.07195 1.66699 10.0003 1.66699C13.9287 1.66699 15.8929 1.66699 17.1133 2.88738C18.3337 4.10777 18.3337 6.07195 18.3337 10.0003C18.3337 13.9287 18.3337 15.8929 17.1133 17.1133C15.8929 18.3337 13.9287 18.3337 10.0003 18.3337ZM13.3589 7.47505C13.603 7.71913 13.603 8.11485 13.3589 8.35893L9.19227 12.5256C8.94819 12.7697 8.55246 12.7697 8.30838 12.5256L6.64172 10.8589C6.39764 10.6149 6.39764 10.2191 6.64172 9.97505C6.88579 9.73097 7.28152 9.73097 7.5256 9.97505L8.75032 11.1998L12.475 7.47505C12.7191 7.23097 13.1149 7.23097 13.3589 7.47505Z" fill="white"/>
</svg>
