<svg width="24" height="24" viewBox="0 0 24 24" fill="none" xmlns="http://www.w3.org/2000/svg">
<g clip-path="url(#clip0_24_256)">
<path fill-rule="evenodd" clip-rule="evenodd" d="M24 12C24 18.6274 18.6274 24 12 24C5.37258 24 0 18.6274 0 12C0 5.37258 5.37258 0 12 0C18.6274 0 24 5.37258 24 12ZM12.8755 12.4699H15.0168L15.3002 9.71553H12.8757V8.09301C12.8757 7.48443 13.2779 7.34154 13.5639 7.34154H15.3075V4.66551L12.9044 4.65546C10.2374 4.65546 9.63135 6.65318 9.63135 7.92894V9.71296H8.08841V12.4699H9.63135V20.3144H12.8755V12.4699Z" fill="#F2F2F2"/>
</g>
<defs>
<clipPath id="clip0_24_256">
<rect width="24" height="24" fill="white"/>
</clipPath>
</defs>
</svg>
