<svg width="24" height="24" viewBox="0 0 24 24" fill="none" xmlns="http://www.w3.org/2000/svg">
<g clip-path="url(#clip0_24_249)">
<path d="M12 0C5.37285 0 0 5.37285 0 12C0 18.6272 5.37285 24 12 24C18.6272 24 24 18.6272 24 12C24 5.37285 18.6272 0 12 0ZM19.2183 15.6089C19.2183 17.6172 17.5849 19.2507 15.5766 19.2507H8.42345C6.41538 19.2507 4.78166 17.6172 4.78166 15.6089V8.4558C4.78166 6.44774 6.41538 4.81401 8.42345 4.81401H15.5766C17.5849 4.81401 19.2183 6.44774 19.2183 8.4558V15.6089Z" fill="#F2F2F2"/>
<path fill-rule="evenodd" clip-rule="evenodd" d="M8.42317 6.38477H15.5763C16.7183 6.38477 17.6472 7.31366 17.6472 8.4554V15.6085C17.6472 16.7505 16.718 17.6794 15.5763 17.6794H8.42317C7.28144 17.6794 6.35254 16.7502 6.35254 15.6085V8.4554C6.35254 7.31366 7.28144 6.38477 8.42317 6.38477ZM8.28173 12.032C8.28173 14.0823 9.94968 15.7502 11.9997 15.7502C14.0498 15.7502 15.718 14.082 15.718 12.032C15.718 9.98191 14.05 8.31395 11.9997 8.31395C9.94968 8.31395 8.28173 9.98191 8.28173 12.032ZM14.9575 8.20299C14.9575 8.68803 15.3522 9.08269 15.8375 9.08269C16.3225 9.08269 16.7172 8.68803 16.7172 8.20299C16.7172 7.71795 16.3225 7.32329 15.8375 7.32329C15.3522 7.32329 14.9575 7.71795 14.9575 8.20299ZM9.85254 12.0313C9.85254 10.8479 10.8162 9.88477 11.9996 9.88477C13.1834 9.88477 14.1465 10.8482 14.1465 12.0313C14.1465 13.2153 13.1836 14.1787 11.9996 14.1787C10.8162 14.1787 9.85254 13.2153 9.85254 12.0313Z" fill="#F2F2F2"/>
</g>
<defs>
<clipPath id="clip0_24_249">
<rect width="24" height="24" fill="white"/>
</clipPath>
</defs>
</svg>
