<svg width="20" height="21" viewBox="0 0 20 21" fill="none" xmlns="http://www.w3.org/2000/svg">
<path fill-rule="evenodd" clip-rule="evenodd" d="M9.99996 18.6361C6.07159 18.6361 4.1074 18.6361 2.88701 17.4158C1.66663 16.1954 1.66663 14.2312 1.66663 10.3028C1.66663 6.37444 1.66663 4.41026 2.88701 3.18987C4.1074 1.96948 6.07159 1.96948 9.99996 1.96948C13.9283 1.96948 15.8925 1.96948 17.1129 3.18987C18.3333 4.41026 18.3333 6.37444 18.3333 10.3028C18.3333 14.2312 18.3333 16.1954 17.1129 17.4158C15.8925 18.6361 13.9283 18.6361 9.99996 18.6361ZM13.3586 7.77754C13.6026 8.02162 13.6026 8.41735 13.3586 8.66142L9.1919 12.8281C8.94782 13.0722 8.55209 13.0722 8.30802 12.8281L6.64135 11.1614C6.39727 10.9173 6.39727 10.5216 6.64135 10.2775C6.88543 10.0335 7.28116 10.0335 7.52523 10.2775L8.74996 11.5023L12.4747 7.77754C12.7188 7.53346 13.1145 7.53346 13.3586 7.77754Z" fill="#2B59C3"/>
</svg>
