<svg xmlns="http://www.w3.org/2000/svg" width="85" height="182" viewBox="0 0 85 182" fill="none">
  <path d="M66.1098 159.072C66.187 158.94 66.2514 158.8 66.302 158.656C66.302 158.495 66.302 158.335 66.302 158.175L70.6606 138.946C70.6764 138.701 70.6764 138.454 70.6606 138.209C70.6763 137.996 70.6763 137.781 70.6606 137.568V137.151C70.6361 137.007 70.5692 136.873 70.4683 136.767C70.359 136.602 70.2299 136.451 70.0837 136.318L69.6991 135.998H69.5068L68.8339 135.613C68.3265 135.328 67.7735 135.133 67.1994 135.036L49.7973 133.306C50.36 133.389 50.9029 133.574 51.3997 133.85L52.1048 134.267H52.265L52.6816 134.588C52.8265 134.722 52.9555 134.873 53.0662 135.036C53.1673 135.194 53.2431 135.367 53.2906 135.549C53.3051 135.709 53.3051 135.87 53.2906 136.03C53.2906 136.254 53.2906 136.446 53.2906 136.639C53.324 136.883 53.324 137.131 53.2906 137.376L48.9641 156.605C48.9641 156.797 48.9641 156.957 48.8039 157.117C48.7485 157.266 48.673 157.406 48.5795 157.534L48.3872 157.79L48.1629 158.015C48.0675 158.032 47.9698 158.032 47.8745 158.015C47.7253 158.031 47.5749 158.031 47.4258 158.015L64.8599 159.777H65.4047H65.597L66.1098 159.072Z" fill="url(#paint0_radial_1602_5933)"/>
  <path d="M58.8018 178.942L56.943 177.917L56.4623 177.596L55.1163 176.731L54.7637 176.507L53.2895 175.353L53.0011 175.096C52.6362 174.801 52.2935 174.48 51.9755 174.135L51.6551 173.815C51.2705 173.398 50.918 173.013 50.5975 172.597C50.277 172.18 49.9886 171.731 49.7001 171.315L49.4117 170.802C49.2514 170.514 49.0912 170.193 48.963 169.905C48.8348 169.616 48.9631 169.52 48.7067 169.36C48.4503 169.2 48.3861 168.495 48.258 168.046C48.0746 167.435 47.9248 166.814 47.8093 166.187V165.61C47.8093 165.162 47.6491 164.681 47.585 164.2C47.6008 163.976 47.6008 163.751 47.585 163.527C47.585 163.014 47.585 162.502 47.585 162.021C47.569 161.818 47.569 161.615 47.585 161.412V160.354C47.6017 160.088 47.6017 159.82 47.585 159.553V158.399C47.585 158.175 47.585 157.919 47.585 157.662L47.7773 156.348V155.707C47.7773 155.034 48.0336 154.361 48.1618 153.688L54.5714 125.294C54.7316 124.557 54.924 123.852 55.1163 123.179L55.3085 122.538C55.3085 122.057 55.597 121.608 55.7572 121.192C55.8766 120.842 56.0157 120.5 56.1738 120.166V119.942C56.3661 119.493 56.5584 119.045 56.7827 118.628V118.34L57.4237 117.25L57.7442 116.833C57.9072 116.554 58.0892 116.286 58.289 116.032L58.6735 115.583L59.2504 114.942C59.5336 114.638 59.8332 114.349 60.1478 114.077L61.0451 113.468L61.9104 113.084H62.1027L62.9359 112.859C63.277 112.826 63.6204 112.826 63.9615 112.859H64.2179H65.3075L48.4823 110.744H47.1043H46.1107L45.2455 110.968H45.0532L44.2199 111.321C43.9063 111.502 43.6064 111.705 43.3226 111.93C43.0397 112.169 42.7721 112.426 42.5214 112.699C42.3291 112.923 42.1689 113.148 41.9766 113.34L41.592 113.789L41.0151 114.59C40.9181 114.721 40.8324 114.861 40.7587 115.007C40.5665 115.359 40.3421 115.712 40.1498 116.096L39.9896 116.385C39.7973 116.801 39.573 117.218 39.3807 117.667V117.891L39.0923 118.596V118.948C38.932 119.365 38.7718 119.814 38.6436 120.262C38.5154 120.711 38.4833 120.679 38.4193 120.903C38.3552 121.128 38.0347 122.313 37.8744 123.051L31.4648 151.445C31.3046 152.118 31.1764 152.791 31.0482 153.432V154.073C31.0482 154.522 31.0482 154.97 30.888 155.387C30.8721 155.643 30.8721 155.9 30.888 156.156C30.8563 156.54 30.8563 156.926 30.888 157.31C30.8712 157.577 30.8712 157.844 30.888 158.111C30.888 158.464 30.888 158.816 30.888 159.169C30.888 159.329 30.888 159.457 30.888 159.585C30.8551 160.087 30.8551 160.59 30.888 161.091C30.8721 161.316 30.8721 161.54 30.888 161.765L31.0803 163.207C31.0803 163.207 31.0803 163.495 31.0803 163.623C31.0834 163.677 31.0834 163.73 31.0803 163.784C31.0803 164.392 31.3687 165.033 31.529 165.61C31.6892 166.187 31.7212 166.251 31.8494 166.572C31.8374 166.689 31.8374 166.807 31.8494 166.924C31.9047 167.113 31.98 167.296 32.0738 167.469C32.234 167.79 32.3622 168.078 32.5545 168.398L32.8429 168.911V169.136C33.0702 169.49 33.3163 169.833 33.58 170.161C33.9064 170.579 34.2596 170.975 34.6376 171.347L34.9901 171.699C35.3106 172.02 35.6311 172.34 36.0157 172.661L36.3041 172.917C36.7646 173.316 37.246 173.691 37.7462 174.039L38.1308 174.295L39.4448 175.161L39.9575 175.449C42.5333 177.311 45.4199 178.7 48.4823 179.551L65.9164 181.314C63.4214 180.958 61.0112 180.155 58.8018 178.942Z" fill="url(#paint1_radial_1602_5933)"/>
  <mask id="mask0_1602_5933" style="mask-type:luminance" maskUnits="userSpaceOnUse" x="14" y="163" width="19" height="3">
    <path d="M32.4568 165.322L15.0227 163.591C14.7346 163.544 14.4542 163.458 14.1895 163.335L31.5915 165.066C31.8596 165.209 32.154 165.296 32.4568 165.322Z" fill="white"/>
  </mask>
  <g mask="url(#mask0_1602_5933)">
    <path d="M32.4568 165.322L15.0227 163.591C14.7346 163.544 14.4542 163.458 14.1895 163.335L31.5915 165.066C31.8596 165.209 32.154 165.296 32.4568 165.322Z" fill="#857B6A"/>
  </g>
  <path d="M36.4316 48.9236C36.5253 48.7843 36.6007 48.6335 36.6559 48.4749C36.6559 48.3147 36.6559 48.1545 36.8161 47.9942L41.1426 28.7654C41.1738 28.5207 41.1738 28.2731 41.1426 28.0283C41.1569 27.8149 41.1569 27.6008 41.1426 27.3874C41.1531 27.238 41.1531 27.0881 41.1426 26.9387L40.9503 26.5862L40.5658 26.1375L40.1491 25.817H39.9889L39.2838 25.4004C38.787 25.1236 38.2441 24.939 37.6815 24.8556L20.2473 23.125C20.8204 23.2074 21.3739 23.3919 21.8818 23.6698C22.1214 23.7822 22.3473 23.922 22.5548 24.0864H22.7471L23.1316 24.4069C23.2789 24.5509 23.4081 24.7123 23.5163 24.8876C23.6269 25.0448 23.7132 25.2176 23.7726 25.4004V25.8811C23.7883 26.0945 23.7883 26.3087 23.7726 26.5221C23.7898 26.7675 23.7898 27.0138 23.7726 27.2592L19.4141 46.488C19.38 46.6643 19.3263 46.8363 19.2539 47.0007C19.2539 47.161 19.2538 47.2892 19.0295 47.4174V47.5776L18.8372 47.834C18.7546 47.9005 18.6794 47.9757 18.6129 48.0583H18.2924H17.8438L35.2779 49.821H35.6624C35.6737 49.7681 35.6737 49.7135 35.6624 49.6607L36.4316 48.9236Z" fill="url(#paint2_radial_1602_5933)"/>
  <path d="M23.0707 160.675C22.8548 160.544 22.651 160.394 22.4618 160.226C22.2765 160.068 22.1146 159.885 21.981 159.681C21.8553 159.489 21.748 159.285 21.6606 159.073C21.5671 158.858 21.5025 158.631 21.4683 158.4C21.4526 158.24 21.4526 158.079 21.4683 157.919C21.4523 157.716 21.4523 157.513 21.4683 157.31C21.4683 156.989 21.4683 156.701 21.4683 156.348C21.4683 155.996 21.4683 155.643 21.4683 155.259V155.067C21.4683 154.682 21.4683 154.297 21.7567 153.913V153.688C21.7567 153.272 22.013 152.823 22.1733 152.375L65.5983 25.6248C65.7906 25.0159 65.9829 24.5031 66.1752 23.9903C66.1752 23.5737 66.4956 23.1891 66.6879 22.8045C66.674 22.7412 66.674 22.6756 66.6879 22.6123C66.8482 22.2597 67.0405 21.9393 67.2007 21.6508V21.4585C67.367 21.1916 67.5489 20.9348 67.7455 20.6894C67.8349 20.5571 67.9428 20.4384 68.066 20.3368L68.4826 20.0164H68.8352H69.3479L51.9139 18.2858C51.7444 18.2537 51.5705 18.2537 51.4011 18.2858H51.0806C50.927 18.372 50.7866 18.4799 50.6639 18.6063L50.4076 18.8947L50.023 19.4395C50.0288 19.5249 50.0288 19.6105 50.023 19.6959V19.8561L49.5423 20.8496V21.0419L49.0295 22.2277C48.8372 22.7084 48.645 23.2532 48.4527 23.798L4.8033 150.195C4.8033 150.676 4.51488 151.125 4.41874 151.541V151.734C4.41874 152.15 4.22644 152.535 4.16235 152.887V153.112C4.13599 153.464 4.13599 153.817 4.16235 154.169C4.16235 154.49 4.16235 154.81 4.16235 155.099C4.16235 155.323 4.16235 155.515 4.16235 155.707C4.16235 155.9 4.16235 156.06 4.16235 156.188L4.35463 156.829C4.41147 157.049 4.50937 157.255 4.64309 157.438C4.77488 157.634 4.92512 157.816 5.09176 157.983C5.26788 158.157 5.47415 158.299 5.70063 158.4L14.3215 162.822L31.7236 164.553L23.0707 160.675Z" fill="url(#paint3_radial_1602_5933)"/>
  <path d="M84.8228 132.634C84.6804 135.15 84.3157 137.649 83.7331 140.101L77.3235 168.463C76.7926 170.85 76.0305 173.179 75.0481 175.418C74.3042 177.215 73.0857 178.777 71.5229 179.936C69.9543 180.948 68.0944 181.41 66.2349 181.25C63.6112 180.952 61.0731 180.135 58.7678 178.847C56.3445 177.856 54.1532 176.374 52.3327 174.493C50.5122 172.611 49.1022 170.373 48.1919 167.918C46.9691 163.211 46.9691 158.269 48.1919 153.561L54.6015 125.166C55.2752 120.849 57.3335 116.867 60.4663 113.821C63.1797 111.557 67.4528 111.92 73.2855 114.911C75.847 116.137 78.1779 117.796 80.1758 119.814C81.7691 121.54 82.9812 123.582 83.7331 125.807C84.5298 127.992 84.8997 130.309 84.8228 132.634ZM66.5875 157.919L70.946 138.691C71.1035 138.048 71.1035 137.378 70.946 136.736C70.7567 136.292 70.4806 135.89 70.1339 135.554C69.7871 135.219 69.3768 134.956 68.927 134.781C67.7092 134.14 66.8759 134.044 66.4272 134.428C65.9809 134.795 65.6751 135.304 65.5619 135.87L61.2034 155.099C61.0271 155.793 61.0271 156.52 61.2034 157.214C61.6275 158.123 62.3847 158.835 63.3186 159.201C64.4723 159.81 65.2735 159.906 65.7222 159.522C66.1861 159.098 66.5008 158.536 66.6195 157.919M79.4387 23.8948L70.8178 19.4721C70.3661 19.2138 69.8311 19.1429 69.3277 19.2747C68.8244 19.4066 68.3928 19.7306 68.1258 20.1772C67.0671 21.71 66.276 23.4113 65.7863 25.2087L22.2331 151.958C21.5372 153.788 21.221 155.74 21.3037 157.695C21.3163 158.302 21.4851 158.894 21.7938 159.417C22.1026 159.939 22.5409 160.372 23.0663 160.676L31.6872 165.066C32.1418 165.321 32.6764 165.393 33.1824 165.268C33.6883 165.143 34.1277 164.83 34.4113 164.393C35.4445 162.85 36.2235 161.151 36.7188 159.362L80.1438 32.6118C80.8622 30.788 81.1897 28.8336 81.1052 26.8752C81.0894 26.2656 80.9157 25.6706 80.6011 25.1482C80.2866 24.6258 79.8419 24.1939 79.3105 23.8948H79.4387ZM45.2756 65.3648C44.5432 67.1694 43.3224 68.7342 41.7503 69.8836C40.1858 70.9024 38.3197 71.3548 36.4624 71.1655C33.8462 70.8997 31.3141 70.0921 29.0272 68.794C26.597 67.8091 24.3986 66.3287 22.5722 64.4471C20.7458 62.5656 19.3315 60.3241 18.4194 57.8656C17.2092 53.1563 17.2092 48.2175 18.4194 43.5081L24.8289 15.1136C25.5374 10.8077 27.5903 6.83645 30.6937 3.76864C33.4178 1.49324 37.6802 1.84576 43.5129 4.82623C46.0649 6.08227 48.3928 7.74967 50.4033 9.76161C51.9908 11.4604 53.2318 13.4525 54.0567 15.6264C54.8118 17.8298 55.1275 20.1598 54.9861 22.4847C54.9022 25.0341 54.5586 27.5683 53.9606 30.048L47.551 58.4104C47.0358 60.8012 46.2732 63.1319 45.2756 65.3648ZM36.8149 47.7705L41.1414 28.5417C41.3301 27.8928 41.3301 27.2036 41.1414 26.5548C40.9491 25.8497 40.2761 25.2087 39.1224 24.5998C37.9686 23.9909 37.1033 23.8948 36.6547 24.2793C36.1877 24.6328 35.8681 25.1465 35.7573 25.7215L31.4308 44.9503C31.2381 45.6422 31.2381 46.3736 31.4308 47.0655C31.627 47.5195 31.9125 47.9294 32.2704 48.2707C32.6282 48.6121 33.0512 48.8779 33.514 49.0524C34.6677 49.6613 35.4689 49.7575 35.9176 49.3729C36.3897 48.951 36.7152 48.3898 36.8469 47.7705" fill="url(#paint4_radial_1602_5933)"/>
  <g style="mix-blend-mode:screen" opacity="0.54">
    <path d="M63.2618 159.33C62.6747 159.054 62.1426 158.674 61.6914 158.208C62.1713 158.91 62.8371 159.465 63.6143 159.81C64.768 160.387 65.5692 160.483 66.0179 160.099C66.4935 159.685 66.8106 159.118 66.9152 158.496L71.2738 139.267C71.4313 138.625 71.4313 137.955 71.2738 137.313C71.1669 136.983 70.9796 136.686 70.729 136.447C70.8147 136.587 70.8795 136.738 70.9212 136.896C71.0788 137.538 71.0788 138.209 70.9212 138.851L66.5627 158.08C66.4556 158.701 66.1389 159.266 65.6654 159.682C65.2167 159.938 64.5116 159.81 63.2618 159.33Z" fill="url(#paint5_radial_1602_5933)"/>
    <path d="M18.8726 58.3458C17.6624 53.6365 17.6624 48.6977 18.8726 43.9884L25.2822 15.6259C25.9735 11.3143 28.029 7.33803 31.147 4.28092C33.8818 2.0162 38.1548 2.36873 43.9662 5.3385C46.5314 6.57227 48.8628 8.24222 50.8565 10.2739L51.9141 11.5238C51.4654 10.9469 51.0168 10.37 50.504 9.79317C48.4997 7.77396 46.1705 6.10563 43.6137 4.85779C37.7809 1.87732 33.4865 1.65299 30.7945 3.8002C27.6795 6.84231 25.6332 10.8112 24.9618 15.1131L18.5522 43.5076C17.342 48.217 17.342 53.1558 18.5522 57.8651C19.0571 59.5727 19.8959 61.163 21.0198 62.5441C20.0562 61.286 19.3287 59.8636 18.8726 58.3458Z" fill="url(#paint6_radial_1602_5933)"/>
    <path d="M33.6122 49.0842C33.0208 48.7996 32.4796 48.4208 32.0098 47.9625C32.4968 48.6581 33.1606 49.2113 33.9327 49.5649C35.0864 50.1418 35.8876 50.2379 36.3363 49.8854C36.8161 49.4566 37.1425 48.8826 37.2656 48.251L41.5921 29.0222C41.7818 28.3844 41.7818 27.7051 41.5921 27.0673C41.4913 26.7332 41.3159 26.4264 41.0793 26.1699C41.1414 26.3053 41.1949 26.4445 41.2396 26.5865C41.4107 27.2378 41.4107 27.9222 41.2396 28.5735L36.8811 47.8023C36.7629 48.4267 36.435 48.9921 35.9517 49.4047C35.6632 49.7893 34.7659 49.6931 33.6122 49.0842Z" fill="url(#paint7_radial_1602_5933)"/>
    <path d="M21.6276 158.175C21.5449 156.22 21.8612 154.268 22.557 152.439L65.9821 25.6891C66.4718 23.8917 67.2628 22.1904 68.3215 20.6576C68.4534 20.4359 68.6279 20.2425 68.8349 20.0886C69.0418 19.9346 69.2772 19.8232 69.5275 19.7606C69.7777 19.6981 70.0378 19.6856 70.2929 19.7241C70.548 19.7625 70.7929 19.851 71.0136 19.9846L79.6345 24.3751C79.9824 24.5683 80.2877 24.83 80.5318 25.1443C80.262 24.6108 79.8222 24.1824 79.2819 23.9265L70.6931 19.5038C70.2365 19.2438 69.6966 19.172 69.188 19.3037C68.6793 19.4353 68.2421 19.76 67.969 20.2089C66.9223 21.737 66.1321 23.4257 65.6295 25.2084L22.2045 151.99C21.5069 153.819 21.1906 155.771 21.2751 157.727C21.3276 158.561 21.6415 159.357 22.1724 160.002C21.8542 159.443 21.6679 158.818 21.6276 158.175Z" fill="url(#paint8_radial_1602_5933)"/>
    <path d="M48.4879 168.495C47.2651 163.787 47.2651 158.845 48.4879 154.137L54.8975 125.775C55.5864 121.458 57.6686 117.485 60.8264 114.462C63.5612 112.176 67.8343 112.528 73.6456 115.52C76.2131 116.736 78.5457 118.396 80.5359 120.423C80.9223 120.81 81.2761 121.228 81.5935 121.673C81.1607 121.067 80.6897 120.489 80.1834 119.942C78.1914 117.931 75.8723 116.273 73.3251 115.039C67.4603 112.026 63.198 111.834 60.5059 113.949C57.3731 116.995 55.3148 120.977 54.6412 125.294L48.2316 153.689C47.0088 158.396 47.0088 163.339 48.2316 168.046C48.7365 169.754 49.5753 171.344 50.6993 172.725C49.6972 171.47 48.9464 170.034 48.4879 168.495Z" fill="url(#paint9_radial_1602_5933)"/>
  </g>
  <path d="M29.2542 68.7936C28.5812 68.441 27.9722 68.1206 27.3954 67.768L26.8826 67.4475C26.4255 67.1892 25.9866 66.9001 25.5687 66.5822L25.0879 66.39L23.6458 65.2362L23.3574 64.9798C22.9728 64.6914 22.6523 64.3709 22.2998 64.0505L21.9793 63.6979C21.6009 63.3152 21.2476 62.9084 20.9217 62.4801C20.6114 62.068 20.3226 61.6401 20.0564 61.1982C19.9482 61.0343 19.8518 60.863 19.768 60.6854C19.5831 60.4002 19.4223 60.1 19.2873 59.7881C19.2873 59.5958 19.2873 59.4035 19.0629 59.2433C18.8746 58.8161 18.714 58.3772 18.5822 57.9293C18.5822 57.3204 18.2617 56.7115 18.1335 56.1026C18.0053 55.4937 18.1335 55.718 18.1335 55.5577C18.1335 55.3975 17.9733 54.5963 17.9092 54.0835C17.8934 53.8595 17.8934 53.6346 17.9092 53.4105C17.9092 52.9298 17.9092 52.417 17.9092 51.9043C17.9251 51.7123 17.9251 51.5194 17.9092 51.3274C17.9092 50.9749 17.9092 50.5903 17.9092 50.2378C17.8939 49.9709 17.8939 49.7034 17.9092 49.4366C17.9092 49.084 17.9092 48.6995 17.9092 48.3149C17.8933 48.0588 17.8933 47.8019 17.9092 47.5457C17.9092 47.0971 17.9092 46.6805 18.1015 46.2318C18.0837 46.0185 18.0837 45.8041 18.1015 45.5908C18.1015 44.9285 18.2297 44.2555 18.4861 43.5718L24.8956 15.1773C25.0879 14.4402 25.2482 13.7351 25.4725 13.0621L25.6648 12.4212C25.7902 11.9648 25.94 11.5155 26.1135 11.0752L26.498 10.0496V9.82529C26.6903 9.37662 26.9147 8.92794 27.107 8.51132C27.1723 8.42229 27.2261 8.32539 27.2672 8.22289C27.4511 7.85969 27.6543 7.50666 27.8761 7.16531V7.00507L28.1966 6.52435L28.7414 5.7552L29.126 5.30652L29.7028 4.66556L30.5682 3.83232L31.4655 3.22341C31.7273 3.06321 32.0069 2.93414 32.2987 2.83883H32.491L33.3563 2.6145H34.3498H34.6062H35.7279L18.2938 0.851857H16.9478C16.6061 0.834537 16.2638 0.834537 15.9222 0.851857L15.0569 1.07619H14.8646L14.0314 1.42872C13.7019 1.58281 13.399 1.78835 13.134 2.03763C12.8519 2.26646 12.5844 2.51264 12.3328 2.77473C12.1343 2.97339 11.9521 3.18774 11.788 3.4157L11.4034 3.86436C11.2038 4.10751 11.0218 4.36454 10.8586 4.63352C10.7445 4.75906 10.6475 4.89915 10.5702 5.05014V5.21038L9.99336 6.26796C9.92804 6.35699 9.87419 6.4539 9.83311 6.5564C9.60877 6.97302 9.41648 7.38964 9.22419 7.83831V8.0947L8.93577 8.76771V9.08818L8.45502 10.4342L8.26274 11.0752C8.07045 11.7802 7.87817 12.4853 7.71793 13.2224L1.30834 41.6169C1.1481 42.2899 1.01989 42.9629 0.891696 43.6038V44.2769L0.699416 45.5588C0.699416 45.8152 0.699416 46.0715 0.699416 46.3279V47.4817V48.2829C0.699416 48.6354 0.699416 48.9879 0.699416 49.3404V49.5327C0.683528 49.6711 0.683528 49.8109 0.699416 49.9493C0.699416 50.4621 0.699416 50.9428 0.699416 51.4556C0.715245 51.6797 0.715245 51.9046 0.699416 52.1286C0.699416 52.6093 0.69944 53.09 0.923776 53.5708C1.14811 54.0515 0.923776 53.8592 0.923776 53.9874C0.923776 54.6283 1.18013 55.2373 1.34037 55.8141C1.50061 56.391 1.53267 56.4551 1.66087 56.7756C1.70092 56.8987 1.75468 57.017 1.82111 57.1281C1.82111 57.3204 1.82109 57.5127 2.04543 57.6729L2.52617 58.6023L2.81459 59.1151C2.83115 59.1889 2.83115 59.2655 2.81459 59.3394C3.04195 59.6941 3.28799 60.0364 3.55168 60.3649C3.87216 60.7816 4.22471 61.1661 4.57724 61.5507L4.92977 61.9032L5.95528 62.8647L6.24375 63.1211C6.71534 63.5203 7.20738 63.8947 7.71793 64.2427L8.07046 64.4991L9.41647 65.3644L9.89722 65.6529C10.5061 66.0054 11.115 66.3579 11.756 66.6784C13.9304 67.8923 16.3094 68.6962 18.7745 69.0499L36.2086 70.7805C33.7896 70.5429 31.4336 69.8697 29.2542 68.7936Z" fill="url(#paint10_radial_1602_5933)"/>
  <defs>
    <radialGradient id="paint0_radial_1602_5933" cx="0" cy="0" r="1" gradientUnits="userSpaceOnUse" gradientTransform="translate(68.1028 181.998) rotate(40.5391) scale(78.6817 78.6817)">
      <stop stop-color="#F76538"/>
      <stop offset="0.46" stop-color="#F76C3D"/>
      <stop offset="0.62" stop-color="#F97848"/>
      <stop offset="0.81" stop-color="#FB9665"/>
      <stop offset="0.89" stop-color="#FBAB7B"/>
      <stop offset="1" stop-color="#FDCFA6"/>
    </radialGradient>
    <radialGradient id="paint1_radial_1602_5933" cx="0" cy="0" r="1" gradientUnits="userSpaceOnUse" gradientTransform="translate(55.5303 206.46) rotate(40.5391) scale(117.718 117.718)">
      <stop stop-color="#F76538"/>
      <stop offset="0.46" stop-color="#F76C3D"/>
      <stop offset="0.62" stop-color="#F97848"/>
      <stop offset="0.81" stop-color="#FB9665"/>
      <stop offset="0.89" stop-color="#FBAB7B"/>
      <stop offset="1" stop-color="#FDCFA6"/>
    </radialGradient>
    <radialGradient id="paint2_radial_1602_5933" cx="0" cy="0" r="1" gradientUnits="userSpaceOnUse" gradientTransform="translate(46.0851 56.261) rotate(40.5391) scale(31.8252 31.8252)">
      <stop stop-color="#F76538"/>
      <stop offset="0.46" stop-color="#F76C3D"/>
      <stop offset="0.62" stop-color="#F97848"/>
      <stop offset="0.81" stop-color="#FB9665"/>
      <stop offset="0.89" stop-color="#FBAB7B"/>
      <stop offset="1" stop-color="#FDCFA6"/>
    </radialGradient>
    <radialGradient id="paint3_radial_1602_5933" cx="0" cy="0" r="1" gradientUnits="userSpaceOnUse" gradientTransform="translate(91.5405 146.164) rotate(40.5392) scale(133.551 133.551)">
      <stop stop-color="#F76538"/>
      <stop offset="0.46" stop-color="#F76C3D"/>
      <stop offset="0.62" stop-color="#F97848"/>
      <stop offset="0.81" stop-color="#FB9665"/>
      <stop offset="0.89" stop-color="#FBAB7B"/>
      <stop offset="1" stop-color="#FDCFA6"/>
    </radialGradient>
    <radialGradient id="paint4_radial_1602_5933" cx="0" cy="0" r="1" gradientUnits="userSpaceOnUse" gradientTransform="translate(53.3869 167.939) rotate(40.5391) scale(122.526 122.526)">
      <stop stop-color="#FBA980"/>
      <stop offset="0.34" stop-color="#FBAB82"/>
      <stop offset="0.54" stop-color="#FBB18B"/>
      <stop offset="0.69" stop-color="#FCBC99"/>
      <stop offset="0.83" stop-color="#FDCBAC"/>
      <stop offset="0.95" stop-color="#FEDEC6"/>
      <stop offset="1" stop-color="#FEE7D1"/>
    </radialGradient>
    <radialGradient id="paint5_radial_1602_5933" cx="0" cy="0" r="1" gradientUnits="userSpaceOnUse" gradientTransform="translate(62.5388 160.156) rotate(40.5391) scale(14.7108 14.7108)">
      <stop stop-color="#FBA980"/>
      <stop offset="0.34" stop-color="#FBAB82"/>
      <stop offset="0.54" stop-color="#FBB18B"/>
      <stop offset="0.69" stop-color="#FCBC99"/>
      <stop offset="0.83" stop-color="#FDCBAC"/>
      <stop offset="0.95" stop-color="#FEDEC6"/>
      <stop offset="1" stop-color="#FEE7D1"/>
    </radialGradient>
    <radialGradient id="paint6_radial_1602_5933" cx="0" cy="0" r="1" gradientUnits="userSpaceOnUse" gradientTransform="translate(20.0613 55.973) rotate(40.5391) scale(38.78 38.78)">
      <stop stop-color="#FBA980"/>
      <stop offset="0.34" stop-color="#FBAB82"/>
      <stop offset="0.54" stop-color="#FBB18B"/>
      <stop offset="0.69" stop-color="#FCBC99"/>
      <stop offset="0.83" stop-color="#FDCBAC"/>
      <stop offset="0.95" stop-color="#FEDEC6"/>
      <stop offset="1" stop-color="#FEE7D1"/>
    </radialGradient>
    <radialGradient id="paint7_radial_1602_5933" cx="0" cy="0" r="1" gradientUnits="userSpaceOnUse" gradientTransform="translate(33.5817 49.8265) rotate(40.5391) scale(14.7108 14.7108)">
      <stop stop-color="#FBA980"/>
      <stop offset="0.34" stop-color="#FBAB82"/>
      <stop offset="0.54" stop-color="#FBB18B"/>
      <stop offset="0.69" stop-color="#FCBC99"/>
      <stop offset="0.83" stop-color="#FDCBAC"/>
      <stop offset="0.95" stop-color="#FEDEC6"/>
      <stop offset="1" stop-color="#FEE7D1"/>
    </radialGradient>
    <radialGradient id="paint8_radial_1602_5933" cx="0" cy="0" r="1" gradientUnits="userSpaceOnUse" gradientTransform="translate(24.5767 143.296) rotate(40.5391) scale(86.6941 86.6941)">
      <stop stop-color="#FBA980"/>
      <stop offset="0.34" stop-color="#FBAB82"/>
      <stop offset="0.54" stop-color="#FBB18B"/>
      <stop offset="0.69" stop-color="#FCBC99"/>
      <stop offset="0.83" stop-color="#FDCBAC"/>
      <stop offset="0.95" stop-color="#FEDEC6"/>
      <stop offset="1" stop-color="#FEE7D1"/>
    </radialGradient>
    <radialGradient id="paint9_radial_1602_5933" cx="0" cy="0" r="1" gradientUnits="userSpaceOnUse" gradientTransform="translate(49.0161 166.303) rotate(40.5391) scale(38.78 38.78)">
      <stop stop-color="#FBA980"/>
      <stop offset="0.34" stop-color="#FBAB82"/>
      <stop offset="0.54" stop-color="#FBB18B"/>
      <stop offset="0.69" stop-color="#FCBC99"/>
      <stop offset="0.83" stop-color="#FDCBAC"/>
      <stop offset="0.95" stop-color="#FEDEC6"/>
      <stop offset="1" stop-color="#FEE7D1"/>
    </radialGradient>
    <radialGradient id="paint10_radial_1602_5933" cx="0" cy="0" r="1" gradientUnits="userSpaceOnUse" gradientTransform="translate(35.617 76.4905) rotate(40.5391) scale(64.3556 64.3556)">
      <stop stop-color="#F76538"/>
      <stop offset="0.46" stop-color="#F76C3D"/>
      <stop offset="0.62" stop-color="#F97848"/>
      <stop offset="0.81" stop-color="#FB9665"/>
      <stop offset="0.89" stop-color="#FBAB7B"/>
      <stop offset="1" stop-color="#FDCFA6"/>
    </radialGradient>
  </defs>
</svg>