<svg xmlns="http://www.w3.org/2000/svg" width="201" height="197" viewBox="0 0 201 197" fill="none">
  <path d="M100.5 201C156.005 201 201 156.005 201 100.5C201 44.9954 156.005 0 100.5 0C44.9954 0 0 44.9954 0 100.5C0 156.005 44.9954 201 100.5 201Z" fill="url(#paint0_radial_1602_5891)"/>
  <path style="mix-blend-mode:screen" opacity="0.62" d="M100.5 201C156.005 201 201 156.005 201 100.5C201 44.9954 156.005 0 100.5 0C44.9954 0 0 44.9954 0 100.5C0 156.005 44.9954 201 100.5 201Z" fill="url(#paint1_radial_1602_5891)"/>
  <path style="mix-blend-mode:multiply" opacity="0.47" d="M100.5 201C156.005 201 201 156.005 201 100.5C201 44.9954 156.005 0 100.5 0C44.9954 0 0 44.9954 0 100.5C0 156.005 44.9954 201 100.5 201Z" fill="url(#paint2_radial_1602_5891)"/>
  <defs>
    <radialGradient id="paint0_radial_1602_5891" cx="0" cy="0" r="1" gradientUnits="userSpaceOnUse" gradientTransform="translate(27.2314 1.10933) scale(167.456 167.456)">
      <stop stop-color="#FFBBA6"/>
      <stop offset="1" stop-color="#F1523F"/>
    </radialGradient>
    <radialGradient id="paint1_radial_1602_5891" cx="0" cy="0" r="1" gradientUnits="userSpaceOnUse" gradientTransform="translate(140.938 92.1536) scale(148.122 148.122)">
      <stop offset="0.62"/>
      <stop offset="0.83"/>
      <stop offset="0.89" stop-color="#2D2D2D"/>
      <stop offset="0.91" stop-color="#4B4B4B"/>
      <stop offset="0.94" stop-color="#808080"/>
      <stop offset="0.96" stop-color="#B3B3B3"/>
      <stop offset="0.98" stop-color="#F1F1F1"/>
      <stop offset="0.99" stop-color="white"/>
      <stop offset="1" stop-color="white"/>
    </radialGradient>
    <radialGradient id="paint2_radial_1602_5891" cx="0" cy="0" r="1" gradientUnits="userSpaceOnUse" gradientTransform="translate(60.9339 16.8512) scale(194.106 194.106)">
      <stop stop-color="white"/>
      <stop offset="0.4" stop-color="white"/>
      <stop offset="0.68" stop-color="#E2E3DF"/>
      <stop offset="0.79" stop-color="#EAECE8"/>
      <stop offset="0.87" stop-color="white"/>
      <stop offset="0.95" stop-color="white"/>
    </radialGradient>
  </defs>
</svg>