<svg width="75" height="122" viewBox="0 0 75 122" fill="none" xmlns="http://www.w3.org/2000/svg">
<path d="M24.8015 121.712C24.7229 121.547 24.6586 121.375 24.6093 121.199V120.975C24.5914 120.708 24.5914 120.44 24.6093 120.173C24.5772 119.886 24.5772 119.596 24.6093 119.308C24.5949 119.223 24.5949 119.137 24.6093 119.052V118.539C24.622 118.432 24.622 118.325 24.6093 118.218V117.962L24.8977 117.385L74.1554 36.0474C74.6514 35.2739 74.8961 34.366 74.856 33.448C74.8158 32.53 74.4928 31.6469 73.9311 30.9197L49.7349 0.570312C50.3006 1.29689 50.6236 2.18294 50.6581 3.10314C50.6926 4.02333 50.4369 4.93108 49.9271 5.69799L0.669417 87.0678C0.582901 87.1888 0.507777 87.3175 0.445058 87.4524C0.445058 87.4524 0.445058 87.4524 0.445058 87.6446V87.869C0.462178 87.921 0.462178 87.9772 0.445058 88.0292C0.434019 88.2 0.434019 88.3712 0.445058 88.542C0.413043 88.8295 0.413043 89.1197 0.445058 89.4073C0.411543 89.6733 0.411543 89.9425 0.445058 90.2085C0.500148 90.3874 0.575435 90.5594 0.669417 90.7213C0.66332 90.7959 0.66332 90.8709 0.669417 90.9456C0.679938 91.02 0.679938 91.0955 0.669417 91.1699L25.122 121.487C25.0188 121.384 24.9323 121.265 24.8656 121.135L24.7054 120.91L24.8015 121.712Z" fill="url(#paint0_radial_1602_5916)"/>
<defs>
<radialGradient id="paint0_radial_1602_5916" cx="0" cy="0" r="1" gradientUnits="userSpaceOnUse" gradientTransform="translate(-8.46428 10.6334) scale(231.547 231.547)">
<stop stop-color="#FA7521"/>
<stop offset="0.37" stop-color="#FA7723"/>
<stop offset="0.58" stop-color="#FA8028"/>
<stop offset="0.75" stop-color="#FA8E31"/>
<stop offset="0.9" stop-color="#FAA13E"/>
<stop offset="1" stop-color="#FAB349"/>
</radialGradient>
</defs>
</svg>
