<svg width="175" height="236" viewBox="0 0 175 236" fill="none" xmlns="http://www.w3.org/2000/svg">
<path d="M170.527 8.815e-05C171.308 -0.00493484 172.075 0.204798 172.745 0.606377C173.416 1.00796 173.962 1.58594 174.326 2.27719C174.69 2.96845 174.857 3.74639 174.808 4.52604C174.76 5.30569 174.499 6.05707 174.052 6.69811L124.666 88.0679C124.229 88.7087 123.974 89.4568 123.931 90.2316C123.887 91.0063 124.056 91.7782 124.418 92.4642C124.781 93.1501 125.324 93.724 125.989 94.124C126.654 94.524 127.415 94.7349 128.191 94.7339C128.648 94.7489 129.104 94.6838 129.538 94.5416L165.944 84.3824C166.393 84.2579 166.856 84.1932 167.322 84.1901C168.174 84.1765 169.011 84.4148 169.729 84.8753C170.446 85.3357 171.011 85.9978 171.353 86.7783C171.696 87.5588 171.8 88.423 171.653 89.2625C171.506 90.102 171.114 90.8794 170.527 91.4971L8.74871 288.848C8.29421 289.448 7.70847 289.937 7.03635 290.275C6.36424 290.614 5.62353 290.795 4.87088 290.803C4.13225 290.834 3.39846 290.671 2.74265 290.329C2.08683 289.988 1.53189 289.481 1.13311 288.859C0.734325 288.236 0.505624 287.52 0.469811 286.782C0.433998 286.043 0.592324 285.308 0.928995 284.65L46.5012 182.962C46.8259 182.312 46.9779 181.59 46.9425 180.865C46.9071 180.139 46.6856 179.435 46.2992 178.82C45.9128 178.205 45.3747 177.7 44.7365 177.353C44.0983 177.007 43.3816 176.83 42.6555 176.841C42.2508 176.796 41.8423 176.796 41.4376 176.841L13.4918 184.116C13.0871 184.161 12.6786 184.161 12.274 184.116C11.5801 184.129 10.8937 183.97 10.2763 183.653C9.65885 183.336 9.12965 182.871 8.73594 182.3C8.34223 181.728 8.09634 181.068 8.02027 180.378C7.9442 179.689 8.04032 178.991 8.30004 178.347L61.5638 29.8368C61.8644 29.0502 62.3507 28.3481 62.9813 27.7901C63.6119 27.232 64.368 26.8347 65.1852 26.632L169.053 0.224425C169.532 0.0836025 170.028 0.00814104 170.527 8.815e-05Z" fill="url(#paint0_radial_1602_5929)"/>
<defs>
<radialGradient id="paint0_radial_1602_5929" cx="0" cy="0" r="1" gradientUnits="userSpaceOnUse" gradientTransform="translate(84.9588 216.837) scale(205.812 205.812)">
<stop stop-color="#FDBB5D"/>
<stop offset="0.38" stop-color="#FDBC5F"/>
<stop offset="0.59" stop-color="#FDC168"/>
<stop offset="0.77" stop-color="#FDC976"/>
<stop offset="0.92" stop-color="#FDD489"/>
<stop offset="1" stop-color="#FDDC97"/>
</radialGradient>
</defs>
</svg>
