<svg width="196" height="151" viewBox="0 0 196 151" fill="none" xmlns="http://www.w3.org/2000/svg">
<path d="M194.075 31.0781L169.527 0.760742C170.178 1.58731 170.513 2.61895 170.472 3.67038C170.431 4.72182 170.016 5.72414 169.302 6.49733L7.74836 203.849C7.50071 204.166 7.20938 204.446 6.88306 204.682C6.60959 204.886 6.32025 205.069 6.01777 205.227L5.31271 205.483H4.99224C4.6512 205.516 4.30772 205.516 3.96668 205.483C3.62555 205.514 3.28227 205.514 2.94114 205.483C1.96087 205.261 1.08189 204.72 0.441406 203.945L24.894 234.294C25.32 234.815 25.8585 235.233 26.4691 235.516C27.0796 235.799 27.7464 235.94 28.4193 235.929H29.4448H29.7653L30.4383 235.704L31.0152 235.384L31.3036 235.16L31.7202 234.775L32.0407 234.39L193.723 37.007C194.488 36.2281 194.945 35.1985 195.01 34.1086C195.075 33.0187 194.743 31.9422 194.075 31.0781Z" fill="url(#paint0_radial_1602_5928)"/>
<defs>
<radialGradient id="paint0_radial_1602_5928" cx="0" cy="0" r="1" gradientUnits="userSpaceOnUse" gradientTransform="translate(114.532 -73.3662) scale(231.547 231.547)">
<stop stop-color="#FA7521"/>
<stop offset="0.37" stop-color="#FA7723"/>
<stop offset="0.58" stop-color="#FA8028"/>
<stop offset="0.75" stop-color="#FA8E31"/>
<stop offset="0.9" stop-color="#FAA13E"/>
<stop offset="1" stop-color="#FAB349"/>
</radialGradient>
</defs>
</svg>
