<svg width="24" height="24" viewBox="0 0 24 24" fill="none" xmlns="http://www.w3.org/2000/svg">
<g clip-path="url(#clip0_24_254)">
<path d="M14.6667 12L10.6667 14.3333V9.66667L14.6667 12Z" fill="#F2F2F2"/>
<path fill-rule="evenodd" clip-rule="evenodd" d="M12 24C18.6274 24 24 18.6274 24 12C24 5.37258 18.6274 0 12 0C5.37258 0 0 5.37258 0 12C0 18.6274 5.37258 24 12 24ZM18.6667 12C18.6667 12 18.6667 9.52 18.362 8.332C18.1947 7.67733 17.7 7.16133 17.07 6.984C15.9307 6.66667 12 6.66667 12 6.66667C12 6.66667 8.07133 6.66667 6.93 6.984C6.30267 7.15867 5.80733 7.67533 5.638 8.332C5.33333 9.52 5.33333 12 5.33333 12C5.33333 12 5.33333 14.48 5.638 15.668C5.80533 16.3227 6.3 16.8387 6.93 17.016C8.07133 17.3333 12 17.3333 12 17.3333C12 17.3333 15.9307 17.3333 17.07 17.016C17.6973 16.8413 18.1927 16.3247 18.362 15.668C18.6667 14.48 18.6667 12 18.6667 12Z" fill="#F2F2F2"/>
</g>
<defs>
<clipPath id="clip0_24_254">
<rect width="24" height="24" fill="white"/>
</clipPath>
</defs>
</svg>
