<svg width="40" height="29" viewBox="0 0 40 29" fill="none" xmlns="http://www.w3.org/2000/svg">
<path d="M7.68979 0.133511C6.83679 0.298887 6.05343 0.577417 5.20043 0.995213C1.15304 3.02326 -0.901114 7.75827 0.378383 12.1451C1.29231 15.3221 3.71204 17.7157 6.93254 18.647L7.64627 18.8559L6.95865 19.9788C6.34937 20.9971 4.63467 23.5909 3.4161 25.3492C2.71107 26.3762 2.67625 26.9594 3.28554 27.6122C3.59888 27.9517 3.6424 27.9691 4.20817 28.0039C5.80101 28.0909 9.07374 27.0029 11.2062 25.6799C12.6859 24.7573 14.3919 23.2167 15.4103 21.8675C17.2381 19.4565 18.4393 16.2969 18.8832 12.7022C18.9441 12.1886 18.9964 10.944 18.9877 9.87335C18.9877 8.07161 18.9702 7.90623 18.7526 7.08805C18.4741 6.05227 17.7343 4.52036 17.1337 3.72829C15.7672 1.93525 13.6782 0.620937 11.4848 0.168327C10.4577 -0.0405712 8.63853 -0.0579796 7.68979 0.133511Z" fill="#2B59C3"/>
<path d="M29.0061 0.0551357C26.7431 0.368483 24.3059 1.83076 22.861 3.72825C22.2605 4.52902 21.5206 6.05223 21.2421 7.08801C21.0332 7.87138 21.0071 8.10639 21.0071 9.48163C21.0071 10.8569 21.0332 11.0919 21.2421 11.8752C21.9036 14.3559 23.4529 16.3927 25.6899 17.7331C26.3601 18.1335 27.3697 18.5426 28.1009 18.7079L28.5883 18.8211L28.3098 19.3085C27.6831 20.4139 25.7073 23.4342 24.332 25.3926C23.9578 25.9236 23.8794 26.1064 23.8446 26.4894C23.8011 27.0725 23.9926 27.5164 24.4278 27.8124C24.8282 28.0822 25.5332 28.0909 26.6995 27.8472C29.0148 27.3598 31.1995 26.3936 33.1754 25.001C34.1241 24.322 35.9258 22.5116 36.6483 21.4932C38.2411 19.2476 39.4075 16.0706 39.7904 12.9197C40.2953 8.82882 39.9123 6.47873 38.3804 4.17216C36.979 2.07448 34.7595 0.603491 32.244 0.124767C31.5999 0.00291061 29.685 -0.0406094 29.0061 0.0551357Z" fill="#2B59C3"/>
</svg>
