<svg width="64" height="64" viewBox="0 0 64 64" fill="none" xmlns="http://www.w3.org/2000/svg">
<circle cx="32" cy="32" r="31.5" fill="white" stroke="#E0DEF7"/>
<circle cx="32" cy="32" r="28" fill="#FFDFD6"/>
<path d="M24.2049 39.6153H31.7949V39.2203C31.7949 38.8775 31.7 38.5597 31.5103 38.267C31.3205 37.9746 31.058 37.7522 30.7229 37.6C30.3043 37.4085 29.8693 37.2649 29.4179 37.1693C28.9666 37.0736 28.4939 37.0257 27.9999 37.0257C27.5059 37.0257 27.0333 37.0736 26.5819 37.1693C26.1306 37.2649 25.6956 37.4085 25.2769 37.6C24.9418 37.7522 24.6794 37.9746 24.4896 38.267C24.2998 38.5597 24.2049 38.8775 24.2049 39.2203V39.6153ZM35.4616 37.5897H39.2049C39.4347 37.5897 39.6246 37.5147 39.7746 37.3647C39.9248 37.2147 39.9999 37.0249 39.9999 36.7953C39.9999 36.566 39.9248 36.3761 39.7746 36.2257C39.6246 36.0752 39.4347 36 39.2049 36H35.4616C35.2318 36 35.0419 36.075 34.8919 36.225C34.7417 36.375 34.6666 36.5648 34.6666 36.7943C34.6666 37.0237 34.7417 37.2136 34.8919 37.364C35.0419 37.5145 35.2318 37.5897 35.4616 37.5897ZM27.9969 36C28.4947 36 28.9188 35.8258 29.2693 35.4773C29.6197 35.1289 29.7949 34.7058 29.7949 34.208C29.7949 33.7105 29.6207 33.2865 29.2723 32.936C28.9238 32.5856 28.5007 32.4103 28.0029 32.4103C27.5051 32.4103 27.081 32.5846 26.7306 32.933C26.3801 33.2815 26.2049 33.7045 26.2049 34.202C26.2049 34.6998 26.3791 35.1239 26.7276 35.4743C27.076 35.8248 27.4991 36 27.9969 36ZM35.4616 34H39.2049C39.4347 34 39.6246 33.925 39.7746 33.775C39.9248 33.625 39.9999 33.4352 39.9999 33.2057C39.9999 32.9763 39.9248 32.7865 39.7746 32.636C39.6246 32.4856 39.4347 32.4103 39.2049 32.4103H35.4616C35.2318 32.4103 35.0419 32.4853 34.8919 32.6353C34.7417 32.7853 34.6666 32.9751 34.6666 33.2047C34.6666 33.434 34.7417 33.6239 34.8919 33.7743C35.0419 33.9248 35.2318 34 35.4616 34ZM21.7436 44.6667C21.07 44.6667 20.4999 44.4333 20.0333 43.9667C19.5666 43.5 19.3333 42.9299 19.3333 42.2563V28.4103C19.3333 27.7368 19.5666 27.1667 20.0333 26.7C20.4999 26.2333 21.07 26 21.7436 26H28.6666V21.3333C28.6666 20.7833 28.8625 20.3126 29.2543 19.921C29.6458 19.5292 30.1166 19.3333 30.6666 19.3333H33.3333C33.8833 19.3333 34.354 19.5292 34.7456 19.921C35.1374 20.3126 35.3333 20.7833 35.3333 21.3333V26H42.2563C42.9298 26 43.4999 26.2333 43.9666 26.7C44.4333 27.1667 44.6666 27.7368 44.6666 28.4103V42.2563C44.6666 42.9299 44.4333 43.5 43.9666 43.9667C43.4999 44.4333 42.9298 44.6667 42.2563 44.6667H21.7436ZM30.6666 28.513H33.3333V21.3333H30.6666V28.513Z" fill="#FF784F"/>
<path d="M40 40H64V52C64 58.6274 58.6274 64 52 64C45.3726 64 40 58.6274 40 52V40Z" fill="#2B59C3"/>
<path d="M49 47.04L51.944 46H53.864V57.2H51.656V48.336L49.544 48.928L49 47.04Z" fill="white"/>
</svg>
