<svg width="64" height="64" viewBox="0 0 64 64" fill="none" xmlns="http://www.w3.org/2000/svg">
<circle cx="32" cy="32" r="31.5" fill="white" stroke="#E0DEF7"/>
<circle cx="32" cy="32" r="28" fill="#FFDFD6"/>
<path d="M40.205 37.6667H44.8793C45.1627 37.6667 45.4002 37.7626 45.592 37.9543C45.7836 38.1461 45.8793 38.3837 45.8793 38.667C45.8793 38.9506 45.7836 39.188 45.592 39.3793C45.4002 39.5709 45.1627 39.6667 44.8793 39.6667H42.3923L45.9693 43.2437C46.1538 43.4261 46.246 43.6542 46.246 43.928C46.246 44.2016 46.1538 44.4376 45.9693 44.636C45.7709 44.8427 45.5332 44.9439 45.2563 44.9397C44.9794 44.9355 44.7419 44.8342 44.5437 44.636L41 41.0923V43.546C41 43.8293 40.9041 44.0669 40.7123 44.2587C40.5206 44.4502 40.283 44.546 39.9997 44.546C39.7161 44.546 39.4787 44.4502 39.2873 44.2587C39.0958 44.0669 39 43.8293 39 43.546V38.8717C39 38.5303 39.1154 38.2441 39.3463 38.013C39.5774 37.7821 39.8637 37.6667 40.205 37.6667ZM34 21.3333V26.1333C34 26.4733 34.115 26.7583 34.345 26.9883C34.575 27.2183 34.86 27.3333 35.2 27.3333H40L34 21.3333ZM24.4103 19.3333H34.0027C34.3278 19.3333 34.6377 19.3958 34.9323 19.5207C35.227 19.6453 35.4838 19.8171 35.7027 20.036L41.2973 25.6307C41.5162 25.8496 41.688 26.1063 41.8127 26.401C41.9376 26.6957 42 27.0056 42 27.3307V33.795C42 34.1363 41.8844 34.4226 41.6533 34.6537C41.4224 34.8846 41.1362 35 40.7947 35H37.5383C37.197 35 36.9108 35.1158 36.6797 35.3473C36.4488 35.5789 36.3333 35.8659 36.3333 36.2083V43.4583C36.3333 43.8006 36.2179 44.0876 35.987 44.3193C35.7559 44.5509 35.4697 44.6667 35.1283 44.6667H24.4103C23.7368 44.6667 23.1667 44.4333 22.7 43.9667C22.2333 43.5 22 42.9299 22 42.2563V21.7437C22 21.0701 22.2333 20.5 22.7 20.0333C23.1667 19.5667 23.7368 19.3333 24.4103 19.3333Z" fill="#FF784F"/>
<path d="M40 40H64V52C64 58.6274 58.6274 64 52 64C45.3726 64 40 58.6274 40 52V40Z" fill="#2B59C3"/>
<path d="M56 57H48.0846V55.2689L52.1268 51.1345C53.0289 50.1821 53.4799 49.3978 53.4799 48.7815C53.4799 48.3221 53.3333 47.9524 53.0402 47.6723C52.7583 47.3922 52.3918 47.2521 51.9408 47.2521C51.0388 47.2521 50.3791 47.7115 49.9619 48.6303L48 47.4874C48.3608 46.6919 48.8851 46.0812 49.5729 45.6555C50.272 45.2185 51.05 45 51.907 45C52.9782 45 53.8971 45.3361 54.6638 46.0084C55.4306 46.6695 55.814 47.5658 55.814 48.6975C55.814 49.9188 55.1656 51.1737 53.8689 52.4622L51.5518 54.7647H56V57Z" fill="white"/>
</svg>
