<svg width="64" height="64" viewBox="0 0 64 64" fill="none" xmlns="http://www.w3.org/2000/svg">
<circle cx="32" cy="32" r="31.5" fill="white" stroke="#E0DEF7"/>
<path opacity="0.96" d="M60 32C60 47.464 47.464 60 32 60C16.536 60 4 47.464 4 32C4 16.536 16.536 4 32 4C47.464 4 60 16.536 60 32Z" fill="#FFDFD6"/>
<path d="M21.7436 43.3333C21.07 43.3333 20.4999 43.1 20.0333 42.6333C19.5666 42.1667 19.3333 41.5966 19.3333 40.923V27.077C19.3333 26.4034 19.5666 25.8333 20.0333 25.3667C20.4999 24.9 21.07 24.6667 21.7436 24.6667H27.3333V22.4103C27.3333 21.7368 27.5666 21.1667 28.0333 20.7C28.4999 20.2333 29.07 20 29.7436 20H34.2563C34.9298 20 35.4999 20.2333 35.9666 20.7C36.4333 21.1667 36.6666 21.7368 36.6666 22.4103V24.6667H42.2563C42.9298 24.6667 43.4999 24.9 43.9666 25.3667C44.4333 25.8333 44.6666 26.4034 44.6666 27.077V40.923C44.6666 41.5966 44.4333 42.1667 43.9666 42.6333C43.4999 43.1 42.9298 43.3333 42.2563 43.3333H21.7436ZM29.3333 24.6667H34.6666V22.4103C34.6666 22.3077 34.6238 22.2137 34.5383 22.1283C34.4529 22.0428 34.3589 22 34.2563 22H29.7436C29.6409 22 29.5469 22.0428 29.4616 22.1283C29.376 22.2137 29.3333 22.3077 29.3333 22.4103V24.6667Z" fill="#FF784F"/>
<path d="M40 40H64V52C64 58.6274 58.6274 64 52 64C45.3726 64 40 58.6274 40 52V40Z" fill="#2B59C3"/>
<path d="M55.5265 46.916L53.3878 49.7731C54.1823 50.0084 54.8136 50.423 55.2816 51.0168C55.7605 51.6106 56 52.3165 56 53.1345C56 54.3445 55.6027 55.2913 54.8082 55.9748C54.0354 56.6583 53.0721 57 51.9184 57C51.015 57 50.215 56.7871 49.5184 56.3613C48.8218 55.9244 48.3156 55.3081 48 54.5126L49.9265 53.3697C50.1986 54.2773 50.8626 54.7311 51.9184 54.7311C52.4952 54.7311 52.9415 54.591 53.2571 54.3109C53.5837 54.0196 53.7469 53.6275 53.7469 53.1345C53.7469 52.6527 53.5837 52.2661 53.2571 51.9748C52.9415 51.6835 52.4952 51.5378 51.9184 51.5378H51.4286L50.5633 50.1933L52.8163 47.1681H48.3429V45H55.5265V46.916Z" fill="white"/>
</svg>
