<svg width="120" height="120" viewBox="0 0 120 120" fill="none" xmlns="http://www.w3.org/2000/svg">
<path d="M17.0104 42.9997C16.9413 29.745 27.6304 19 40.8853 19H79.2657C92.5205 19 103.322 29.745 103.391 42.9997L103.591 81.3788C103.66 94.6335 92.9709 105.379 79.7161 105.379H41.3356C28.0808 105.379 17.2796 94.6335 17.2105 81.3789L17.0104 42.9997Z" fill="#FF784F"/>
<path d="M79.2591 23.0928C78.0114 16.5839 82.2817 10.3235 88.7971 9.10978L99.0621 7.19758C105.577 5.98388 111.871 10.2765 113.118 16.7854L115.084 27.0401C116.332 33.549 112.061 39.8094 105.546 41.0231L95.2808 42.9353C88.7655 44.149 82.4724 39.8564 81.2247 33.3475L79.2591 23.0928Z" fill="#2B59C3"/>
</svg>
