<svg width="41" height="40" viewBox="0 0 41 40" fill="none" xmlns="http://www.w3.org/2000/svg">
<circle cx="20.5" cy="20" r="20" fill="#FFE8E1"/>
<path d="M15.05 27.9895L15.0605 26.0365L21.644 20.1355C22.176 19.6665 22.5365 19.2185 22.7255 18.7915C22.9215 18.3645 23.0195 17.9375 23.0195 17.5105C23.0195 16.9715 22.9005 16.4885 22.6625 16.0615C22.4245 15.6275 22.0955 15.2845 21.6755 15.0325C21.2555 14.7805 20.7725 14.6545 20.2265 14.6545C19.6665 14.6545 19.166 14.7875 18.725 15.0535C18.291 15.3125 17.9515 15.659 17.7065 16.093C17.4615 16.527 17.3425 16.996 17.3495 17.5H15.1025C15.1025 16.52 15.323 15.6625 15.764 14.9275C16.212 14.1855 16.8245 13.608 17.6015 13.195C18.3785 12.775 19.2675 12.565 20.2685 12.565C21.2205 12.565 22.0745 12.782 22.8305 13.216C23.5865 13.643 24.1815 14.231 24.6155 14.98C25.0565 15.729 25.277 16.583 25.277 17.542C25.277 18.235 25.186 18.823 25.004 19.306C24.822 19.789 24.549 20.237 24.185 20.65C23.821 21.063 23.366 21.511 22.82 21.994L17.738 26.53L17.4965 25.9H25.277V27.9895H15.05Z" fill="black"/>
</svg>
