<svg width="41" height="40" viewBox="0 0 41 40" fill="none" xmlns="http://www.w3.org/2000/svg">
<circle cx="20.5" cy="20" r="20" fill="#DBF4FF"/>
<path d="M19.7015 28.2835C18.9525 28.2835 18.249 28.1435 17.591 27.8635C16.933 27.5765 16.3625 27.1705 15.8795 26.6455C15.4035 26.1205 15.057 25.501 14.84 24.787L16.961 24.199C17.164 24.85 17.5175 25.3505 18.0215 25.7005C18.5255 26.0435 19.0855 26.2115 19.7015 26.2045C20.2545 26.1975 20.741 26.068 21.161 25.816C21.581 25.564 21.91 25.2245 22.148 24.7975C22.386 24.3635 22.505 23.8665 22.505 23.3065C22.505 22.4665 22.2425 21.7735 21.7175 21.2275C21.1995 20.6815 20.5205 20.4085 19.6805 20.4085C19.4425 20.4085 19.1975 20.4435 18.9455 20.5135C18.7005 20.5835 18.4695 20.6745 18.2525 20.7865L17.2235 19.054L22.5575 14.3395L22.7885 14.9695H15.4385V12.88H24.5315V14.9695L20.1005 19.2325L20.0795 18.5185C21.0315 18.5185 21.8575 18.732 22.5575 19.159C23.2575 19.579 23.7965 20.153 24.1745 20.881C24.5595 21.602 24.752 22.4105 24.752 23.3065C24.752 24.2725 24.5245 25.13 24.0695 25.879C23.6215 26.628 23.016 27.216 22.253 27.643C21.497 28.07 20.6465 28.2835 19.7015 28.2835Z" fill="black"/>
</svg>
