<svg xmlns="http://www.w3.org/2000/svg" width="32" height="32" viewBox="0 0 32 32" fill="none">
<path fill-rule="evenodd" clip-rule="evenodd" d="M5.5621 4.22909C4 5.79119 4 8.30534 4 13.3337V18.667C4 23.6953 4 26.2095 5.5621 27.7716C7.12419 29.3337 9.63835 29.3337 14.6667 29.3337H17.3333C22.3616 29.3337 24.8758 29.3337 26.4379 27.7716C28 26.2095 28 23.6953 28 18.667V13.3337C28 8.30534 28 5.79119 26.4379 4.22909C24.8758 2.66699 22.3616 2.66699 17.3333 2.66699H14.6667C9.63835 2.66699 7.12419 2.66699 5.5621 4.22909ZM9.66667 10.667C9.66667 10.1147 10.1144 9.66699 10.6667 9.66699H21.3333C21.8856 9.66699 22.3333 10.1147 22.3333 10.667C22.3333 11.2193 21.8856 11.667 21.3333 11.667H10.6667C10.1144 11.667 9.66667 11.2193 9.66667 10.667ZM9.66667 16.0003C9.66667 15.448 10.1144 15.0003 10.6667 15.0003H21.3333C21.8856 15.0003 22.3333 15.448 22.3333 16.0003C22.3333 16.5526 21.8856 17.0003 21.3333 17.0003H10.6667C10.1144 17.0003 9.66667 16.5526 9.66667 16.0003ZM10.6667 20.3337C10.1144 20.3337 9.66667 20.7814 9.66667 21.3337C9.66667 21.8859 10.1144 22.3337 10.6667 22.3337H17.3333C17.8856 22.3337 18.3333 21.8859 18.3333 21.3337C18.3333 20.7814 17.8856 20.3337 17.3333 20.3337H10.6667Z" fill="#FFFFFD"/>
</svg>