<svg width="94" height="94" viewBox="0 0 94 94" fill="none" xmlns="http://www.w3.org/2000/svg">
<circle cx="47" cy="47" r="47" fill="#5588FF" fill-opacity="0.3"/>
<circle cx="47" cy="47" r="37" fill="#2B59C3"/>
<path d="M44.0437 35.6662C45.9384 34.7779 48.0617 34.7779 49.9563 35.6662L58.8779 39.8489C60.8186 40.7587 60.8186 43.9081 58.8779 44.8179L49.9565 49.0005C48.0618 49.8887 45.9385 49.8887 44.0438 49.0005L35.1222 44.8178C33.1816 43.908 33.1816 40.7586 35.1222 39.8488L44.0437 35.6662Z" fill="white" stroke="white" stroke-width="1.5"/>
<path d="M33.6667 42.3334V49.6667" stroke="white" stroke-width="1.5" stroke-linecap="round"/>
<path d="M56.3334 46.3334V53.1673C56.3334 54.5113 55.6621 55.7697 54.4863 56.4208C52.5285 57.505 49.3948 59 47.0001 59C44.6054 59 41.4717 57.505 39.5139 56.4208C38.3381 55.7697 37.6667 54.5113 37.6667 53.1673V46.3334" stroke="white" stroke-width="1.5" stroke-linecap="round"/>
</svg>
