<svg xmlns="http://www.w3.org/2000/svg" width="32" height="32" viewBox="0 0 32 32" fill="none">
<path fill-rule="evenodd" clip-rule="evenodd" d="M2.66699 14.6667C2.66699 9.63836 2.66699 7.1242 4.22909 5.5621C5.79119 4.00001 8.30534 4.00001 13.3337 4.00001H18.667H19.0003L19.0003 28H18.667H13.3337C8.30534 28 5.79119 28 4.22909 26.4379C2.66699 24.8758 2.66699 22.3617 2.66699 17.3333V14.6667ZM21.0003 27.9926L21.0003 4.00746C24.5149 4.04428 26.4725 4.263 27.7716 5.5621C29.3337 7.1242 29.3337 9.63836 29.3337 14.6667V17.3333C29.3337 22.3617 29.3337 24.8758 27.7716 26.4379C26.4725 27.737 24.5149 27.9557 21.0003 27.9926ZM13.2932 20.6262C13.6837 20.2357 14.3169 20.2357 14.7074 20.6262L16.0408 21.9596C16.4313 22.3501 16.4313 22.9833 16.0408 23.3738L14.7074 24.7071C14.3169 25.0976 13.6837 25.0976 13.2932 24.7071C12.9027 24.3166 12.9027 23.6834 13.2932 23.2929L13.9194 22.6667L13.2932 22.0404C12.9027 21.6499 12.9027 21.0168 13.2932 20.6262ZM12.9367 19.0178C13.1306 18.5007 12.8686 17.9243 12.3514 17.7303C11.8343 17.5364 11.2579 17.7984 11.064 18.3155L9.064 23.6489C8.87008 24.166 9.13208 24.7424 9.6492 24.9363C10.1663 25.1303 10.7427 24.8682 10.9367 24.3511L12.9367 19.0178ZM8.70743 17.9596C9.09796 18.3501 9.09796 18.9833 8.70743 19.3738L8.08121 20L8.70743 20.6262C9.09796 21.0168 9.09796 21.6499 8.70743 22.0404C8.31691 22.431 7.68374 22.431 7.29322 22.0404L5.95989 20.7071C5.56936 20.3166 5.56936 19.6834 5.95989 19.2929L7.29322 17.9596C7.68374 17.569 8.31691 17.569 8.70743 17.9596Z" fill="#FFFFFD"/>
</svg>