<svg width="94" height="94" viewBox="0 0 94 94" fill="none" xmlns="http://www.w3.org/2000/svg">
<circle cx="47" cy="47" r="47" fill="#5588FF" fill-opacity="0.3"/>
<circle cx="47" cy="47" r="37" fill="#2B59C3"/>
<path d="M62.2379 48.1866L63.1869 44.6449C64.2947 40.5106 64.8486 38.4434 64.4314 36.6545C64.1021 35.242 63.3613 33.9589 62.3027 32.9674C60.962 31.7117 58.8948 31.1578 54.7605 30.05C50.6262 28.9422 48.5591 28.3883 46.7701 28.8055C45.3576 29.1348 44.0745 29.8756 43.083 30.9342C42.0079 32.0821 41.4473 33.7625 40.613 36.8169C40.4728 37.3299 40.325 37.8817 40.1657 38.4762L40.1657 38.4764L39.2166 42.0181C38.1089 46.1524 37.555 48.2196 37.9721 50.0085C38.3014 51.421 39.0422 52.7041 40.1008 53.6956C41.4415 54.9513 43.5087 55.5052 47.643 56.613C51.3694 57.6115 53.4165 58.16 55.0941 57.953C55.2777 57.9304 55.4569 57.8987 55.6334 57.8575C57.0459 57.5282 58.329 56.7874 59.3205 55.7288C60.5762 54.3881 61.1301 52.3209 62.2379 48.1866Z" fill="white" stroke="white" stroke-width="1.5"/>
<path d="M55.0942 57.9525C54.712 59.1231 54.0399 60.182 53.1362 61.0284C51.7955 62.2841 49.7283 62.838 45.594 63.9458C41.4597 65.0536 39.3926 65.6075 37.6036 65.1904C36.1911 64.861 34.908 64.1202 33.9165 63.0616C32.6608 61.7209 32.1069 59.6538 30.9991 55.5195L30.0501 51.9777C28.9424 47.8434 28.3885 45.7762 28.8056 43.9873C29.1349 42.5748 29.8757 41.2917 30.9343 40.3002C32.275 39.0445 34.3422 38.4906 38.4765 37.3828C39.2587 37.1733 39.9668 36.9835 40.6131 36.8164" stroke="white" stroke-width="1.5"/>
<path d="M46.5908 43.3334L55.4451 45.7059" stroke="#2B59C3" stroke-width="1.5" stroke-linecap="round"/>
<path d="M45.1667 48.6458L50.4793 50.0693" stroke="#2B59C3" stroke-width="1.5" stroke-linecap="round"/>
</svg>
