<svg width="94" height="94" viewBox="0 0 94 94" fill="none" xmlns="http://www.w3.org/2000/svg">
<circle cx="47" cy="47" r="47" fill="#FF784F" fill-opacity="0.3"/>
<circle cx="47" cy="47" r="37" fill="#FF784F"/>
<path d="M41.5001 39.6667H52.5001V36H41.5001V39.6667ZM30.5001 61.6667C29.9806 61.6667 29.5452 61.491 29.1938 61.1396C28.8424 60.7882 28.6667 60.3528 28.6667 59.8334V52.5H36.0001C36.0001 53.0195 36.1758 53.4549 36.5272 53.8063C36.8786 54.1577 37.314 54.3334 37.8334 54.3334C38.3529 54.3334 38.7883 54.1577 39.1397 53.8063C39.4911 53.4549 39.6667 53.0195 39.6667 52.5H54.3334C54.3334 53.0195 54.5091 53.4549 54.8605 53.8063C55.2119 54.1577 55.6473 54.3334 56.1667 54.3334C56.6862 54.3334 57.1216 54.1577 57.473 53.8063C57.8244 53.4549 58.0001 53.0195 58.0001 52.5H65.3334V59.8334C65.3334 60.3528 65.1577 60.7882 64.8063 61.1396C64.4549 61.491 64.0195 61.6667 63.5001 61.6667H30.5001ZM28.6667 50.6667V43.3334C28.6667 42.325 29.0258 41.4618 29.7438 40.7438C30.4619 40.0257 31.3251 39.6667 32.3334 39.6667H37.8334V36C37.8334 34.9917 38.1924 34.1285 38.9105 33.4105C39.6286 32.6924 40.4917 32.3334 41.5001 32.3334H52.5001C53.5084 32.3334 54.3716 32.6924 55.0897 33.4105C55.8077 34.1285 56.1667 34.9917 56.1667 36V39.6667H61.6667C62.6751 39.6667 63.5383 40.0257 64.2563 40.7438C64.9744 41.4618 65.3334 42.325 65.3334 43.3334V50.6667H58.0001V48.8334C58.0001 48.3139 57.8244 47.8785 57.473 47.5271C57.1216 47.1757 56.6862 47 56.1667 47C55.6473 47 55.2119 47.1757 54.8605 47.5271C54.5091 47.8785 54.3334 48.3139 54.3334 48.8334V50.6667H39.6667V48.8334C39.6667 48.3139 39.4911 47.8785 39.1397 47.5271C38.7883 47.1757 38.3529 47 37.8334 47C37.314 47 36.8786 47.1757 36.5272 47.5271C36.1758 47.8785 36.0001 48.3139 36.0001 48.8334V50.6667H28.6667Z" fill="white"/>
</svg>
