<svg width="94" height="94" viewBox="0 0 94 94" fill="none" xmlns="http://www.w3.org/2000/svg">
<circle cx="47" cy="47" r="47" fill="#FF784F" fill-opacity="0.3"/>
<circle cx="47" cy="47" r="37" fill="#FF784F"/>
<path d="M43.3334 36H50.6667V32.3333H43.3334V36ZM58.0001 67.1666C55.464 67.1666 53.3022 66.2729 51.5147 64.4854C49.7272 62.6979 48.8334 60.5361 48.8334 58C48.8334 55.4638 49.7272 53.302 51.5147 51.5145C53.3022 49.727 55.464 48.8333 58.0001 48.8333C60.5362 48.8333 62.698 49.727 64.4855 51.5145C66.273 53.302 67.1667 55.4638 67.1667 58C67.1667 60.5361 66.273 62.6979 64.4855 64.4854C62.698 66.2729 60.5362 67.1666 58.0001 67.1666ZM32.3334 63.5C31.3251 63.5 30.4619 63.1409 29.7438 62.4229C29.0258 61.7048 28.6667 60.8416 28.6667 59.8333V39.6666C28.6667 38.6583 29.0258 37.7951 29.7438 37.077C30.4619 36.359 31.3251 36 32.3334 36H39.6667V32.3333C39.6667 31.325 40.0258 30.4618 40.7438 29.7437C41.4619 29.0257 42.3251 28.6666 43.3334 28.6666H50.6667C51.6751 28.6666 52.5383 29.0257 53.2563 29.7437C53.9744 30.4618 54.3334 31.325 54.3334 32.3333V36H61.6667C62.6751 36 63.5383 36.359 64.2563 37.077C64.9744 37.7951 65.3334 38.6583 65.3334 39.6666V44.9833C65.3334 45.5333 65.0966 45.9458 64.623 46.2208C64.1494 46.4958 63.6529 46.5111 63.1334 46.2666C62.339 45.9 61.5063 45.625 60.6355 45.4416C59.7647 45.2583 58.8862 45.1666 58.0001 45.1666C54.4556 45.1666 51.4306 46.4194 48.9251 48.925C46.4195 51.4305 45.1667 54.4555 45.1667 58C45.1667 58.55 45.2049 59.1076 45.2813 59.6729C45.3577 60.2382 45.4723 60.7958 45.6251 61.3458C45.7779 61.8652 45.6938 62.3541 45.373 62.8125C45.0522 63.2708 44.632 63.5 44.1126 63.5H32.3334ZM58.9167 57.6333V53.4166C58.9167 53.1722 58.8251 52.9583 58.6417 52.775C58.4584 52.5916 58.2445 52.5 58.0001 52.5C57.7556 52.5 57.5417 52.5916 57.3584 52.775C57.1751 52.9583 57.0834 53.1722 57.0834 53.4166V57.5875C57.0834 57.8319 57.1292 58.0687 57.2209 58.2979C57.3126 58.527 57.4501 58.7333 57.6334 58.9166L60.3834 61.6666C60.5667 61.85 60.7806 61.9416 61.0251 61.9416C61.2695 61.9416 61.4834 61.85 61.6667 61.6666C61.8501 61.4833 61.9417 61.2694 61.9417 61.025C61.9417 60.7805 61.8501 60.5666 61.6667 60.3833L58.9167 57.6333Z" fill="white"/>
</svg>
