<svg xmlns="http://www.w3.org/2000/svg" width="32" height="32" viewBox="0 0 32 32" fill="none">
<path d="M24.4762 2.15265C24.7603 1.67907 25.3746 1.5255 25.8482 1.80965L25.3337 2.66714C25.8482 1.80965 25.8477 1.80938 25.8482 1.80965L25.85 1.81076L25.8521 1.81203L25.857 1.81504L25.8698 1.82293C25.8796 1.82903 25.8919 1.83681 25.9066 1.8463C25.936 1.86528 25.9748 1.89111 26.0217 1.92395C26.1155 1.98958 26.2421 2.08358 26.3905 2.20726C26.6866 2.45404 27.0739 2.8227 27.4596 3.3241C28.2368 4.33441 29.0003 5.87694 29.0003 8.00048C29.0003 10.124 28.2368 11.6665 27.4596 12.6769C27.0739 13.1783 26.6866 13.5469 26.3905 13.7937C26.2421 13.9174 26.1155 14.0114 26.0217 14.077C25.9748 14.1098 25.936 14.1357 25.9066 14.1546C25.8993 14.1594 25.8926 14.1637 25.8864 14.1676C25.8803 14.1715 25.8747 14.175 25.8698 14.178L25.857 14.1859L25.8521 14.1889L25.85 14.1902C25.8496 14.1905 25.8482 14.1913 25.3337 13.3338L25.8482 14.1913C25.3746 14.4755 24.7603 14.3219 24.4762 13.8483C24.1932 13.3767 24.3443 12.7656 24.8132 12.4799L24.8206 12.4752C24.8303 12.4689 24.8488 12.4567 24.8748 12.4385C24.9269 12.4021 25.0085 12.3419 25.1101 12.2573C25.314 12.0874 25.5934 11.8227 25.8744 11.4574C26.4305 10.7344 27.0003 9.61027 27.0003 8.00048C27.0003 6.39068 26.4305 5.26654 25.8744 4.54352C25.5934 4.17825 25.314 3.91358 25.1101 3.7437C25.0085 3.65904 24.9269 3.59887 24.8748 3.56242C24.8488 3.54422 24.8303 3.53203 24.8206 3.52574L24.8132 3.52103C24.3443 3.23533 24.1932 2.62424 24.4762 2.15265Z" fill="#FFFFFD"/>
<path d="M13.3337 13.3338C16.2792 13.3338 18.667 10.946 18.667 8.00048C18.667 5.05496 16.2792 2.66714 13.3337 2.66714C10.3881 2.66714 8.00032 5.05496 8.00032 8.00048C8.00032 10.946 10.3881 13.3338 13.3337 13.3338Z" fill="#FFFFFD"/>
<path d="M2.66699 23.3338C2.66699 26.6475 2.66699 29.3338 13.3337 29.3338C24.0003 29.3338 24.0003 26.6475 24.0003 23.3338C24.0003 20.0201 19.2247 17.3338 13.3337 17.3338C7.44262 17.3338 2.66699 20.0201 2.66699 23.3338Z" fill="#FFFFFD"/>
<path d="M23.1815 4.47632C22.7079 4.19217 22.0936 4.34573 21.8095 4.81931L22.1405 6.18397L22.1508 6.19106C22.1664 6.202 22.196 6.22362 22.2351 6.2562C22.314 6.32191 22.4267 6.42825 22.541 6.57685C22.7639 6.86654 23.0003 7.32401 23.0003 8.00048C23.0003 8.67694 22.7639 9.13441 22.541 9.4241C22.4267 9.5727 22.314 9.67904 22.2351 9.74475C22.196 9.77733 22.1664 9.79895 22.1508 9.80989L22.1405 9.81698C21.6763 10.1042 21.5278 10.7121 21.8095 11.1816C22.0936 11.6552 22.7079 11.8088 23.1815 11.5246L22.667 10.6671C23.1815 11.5246 23.181 11.5249 23.1815 11.5246L23.1833 11.5236L23.1852 11.5224L23.1894 11.5198L23.1993 11.5137L23.225 11.4974C23.2446 11.4848 23.2691 11.4684 23.2977 11.4484C23.355 11.4082 23.4296 11.3528 23.5155 11.2812C23.6866 11.1386 23.9073 10.9283 24.1263 10.6435C24.5701 10.0665 25.0003 9.19068 25.0003 8.00048C25.0003 6.81027 24.5701 5.93441 24.1263 5.35743C23.9073 5.0727 23.6866 4.86237 23.5155 4.71975C23.4296 4.64817 23.355 4.5927 23.2977 4.5526C23.2691 4.53252 23.2446 4.51619 23.225 4.50353L23.1993 4.48724L23.1894 4.48111L23.1852 4.47855L23.1833 4.47739C23.1828 4.47713 23.1815 4.47632 22.667 5.33381L23.1815 4.47632Z" fill="#FFFFFD"/>
</svg>