<svg width="32" height="32" viewBox="0 0 32 32" fill="none" xmlns="http://www.w3.org/2000/svg">
<path fill-rule="evenodd" clip-rule="evenodd" d="M4.61961 4.61961C2.66699 6.57224 2.66699 9.71493 2.66699 16.0003C2.66699 22.2857 2.66699 25.4284 4.61961 27.381C6.57224 29.3337 9.71493 29.3337 16.0003 29.3337C22.2857 29.3337 25.4284 29.3337 27.381 27.381C29.3337 25.4284 29.3337 22.2857 29.3337 16.0003C29.3337 9.71493 29.3337 6.57224 27.381 4.61961C25.4284 2.66699 22.2857 2.66699 16.0003 2.66699C9.71493 2.66699 6.57224 2.66699 4.61961 4.61961ZM17.9844 8.59487C18.5179 8.73781 18.8345 9.28615 18.6915 9.81962L15.2406 22.6986C15.0977 23.2321 14.5493 23.5487 14.0158 23.4057C13.4824 23.2628 13.1658 22.7145 13.3087 22.181L16.7597 9.30198C16.9026 8.76851 17.4509 8.45193 17.9844 8.59487ZM19.9599 11.2932C20.3504 10.9027 20.9836 10.9027 21.3741 11.2932L21.6519 11.571C22.499 12.4181 23.2054 13.1244 23.6908 13.7606C24.2031 14.4321 24.5624 15.1415 24.5624 16.0003C24.5624 16.8592 24.2031 17.5686 23.6908 18.2401C23.2054 18.8762 22.499 19.5826 21.6519 20.4296L21.3741 20.7074C20.9836 21.098 20.3504 21.098 19.9599 20.7074C19.5694 20.3169 19.5694 19.6838 19.9599 19.2932L20.1887 19.0645C21.0975 18.1556 21.7066 17.5436 22.1007 17.0269C22.4773 16.5334 22.5624 16.2461 22.5624 16.0003C22.5624 15.7546 22.4773 15.4673 22.1007 14.9737C21.7066 14.4571 21.0975 13.8451 20.1887 12.9362L19.9599 12.7074C19.5694 12.3169 19.5694 11.6837 19.9599 11.2932ZM10.6268 11.2932C11.0173 10.9027 11.6505 10.9027 12.041 11.2932C12.4315 11.6837 12.4315 12.3169 12.041 12.7074L11.8123 12.9362C10.9034 13.8451 10.2944 14.4571 9.90017 14.9737C9.52359 15.4673 9.43848 15.7546 9.43848 16.0003C9.43848 16.2461 9.52359 16.5334 9.90017 17.0269C10.2944 17.5436 10.9034 18.1556 11.8123 19.0645L12.041 19.2932C12.4315 19.6838 12.4315 20.3169 12.041 20.7074C11.6505 21.098 11.0173 21.098 10.6268 20.7074L10.349 20.4297C9.50189 19.5826 8.7955 18.8762 8.31012 18.2401C7.79781 17.5686 7.43848 16.8592 7.43848 16.0003C7.43848 15.1415 7.79781 14.4321 8.31012 13.7606C8.79549 13.1244 9.50189 12.4181 10.349 11.571L10.6268 11.2932Z" fill="#FFFFFD"/>
</svg>
