<svg width="32" height="32" viewBox="0 0 32 32" fill="none" xmlns="http://www.w3.org/2000/svg">
<path fill-rule="evenodd" clip-rule="evenodd" d="M28.5218 21.7811C28.5812 21.8424 28.6109 21.873 28.6386 21.9035C29.0667 22.3736 29.3127 22.9811 29.3324 23.6166C29.3337 23.6578 29.3337 23.7004 29.3337 23.7858C29.3337 23.9847 29.3337 24.0842 29.3284 24.1682C29.2437 25.5085 28.1755 26.5767 26.8351 26.6614C26.7512 26.6667 26.6517 26.6667 26.4528 26.6667H5.5479C5.34897 26.6667 5.2495 26.6667 5.1655 26.6614C3.82519 26.5767 2.75699 25.5085 2.6723 24.1682C2.66699 24.0842 2.66699 23.9847 2.66699 23.7858C2.66699 23.7004 2.66699 23.6578 2.66827 23.6166C2.68792 22.9811 2.93395 22.3736 3.36202 21.9035C3.38976 21.8731 3.41943 21.8424 3.47876 21.7812L5.20448 20H26.7962L28.5218 21.7811ZM11.667 24C11.667 23.4477 12.1147 23 12.667 23H19.3337C19.8859 23 20.3337 23.4477 20.3337 24C20.3337 24.5523 19.8859 25 19.3337 25H12.667C12.1147 25 11.667 24.5523 11.667 24Z" fill="#FFFFFD"/>
<path fill-rule="evenodd" clip-rule="evenodd" d="M5.80425 9.33334C5.80425 6.81918 5.80425 5.5621 6.5853 4.78105C7.36634 4 8.62342 4 11.1376 4H20.8631C23.3772 4 24.6343 4 25.4154 4.78105C26.1964 5.5621 26.1964 6.81918 26.1964 9.33333V18.6667H5.80425V9.33334ZM16.0003 8.66667C16.5526 8.66667 17.0003 8.21895 17.0003 7.66667C17.0003 7.11438 16.5526 6.66667 16.0003 6.66667C15.448 6.66667 15.0003 7.11438 15.0003 7.66667C15.0003 8.21895 15.448 8.66667 16.0003 8.66667Z" fill="#FFFFFD"/>
</svg>
