<svg width="32" height="32" viewBox="0 0 32 32" fill="none" xmlns="http://www.w3.org/2000/svg">
<path d="M16.0003 13.3337C18.9458 13.3337 21.3337 10.9458 21.3337 8.00032C21.3337 5.05481 18.9458 2.66699 16.0003 2.66699C13.0548 2.66699 10.667 5.05481 10.667 8.00032C10.667 10.9458 13.0548 13.3337 16.0003 13.3337Z" fill="#FFFFFD"/>
<path d="M3.63737 7.7577C3.50342 7.22191 2.96049 6.89614 2.42469 7.03009C1.8889 7.16404 1.56314 7.70698 1.69709 8.24277L2.20637 10.2799C3.14605 14.0386 5.99504 16.9997 9.66723 18.1052L9.66723 24.0696C9.66719 25.2675 9.66716 26.2665 9.77378 27.0595C9.88632 27.8966 10.1339 28.6523 10.7412 29.2596C11.3485 29.8669 12.1042 30.1145 12.9413 30.227C13.7343 30.3336 14.7333 30.3336 15.9312 30.3336H16.0699C17.2679 30.3336 18.2668 30.3336 19.0599 30.227C19.8969 30.1145 20.6527 29.8669 21.2599 29.2596C21.8672 28.6523 22.1148 27.8966 22.2273 27.0595C22.334 26.2665 22.3339 25.2676 22.3339 24.0696L22.3339 18.4789C23.6421 18.8689 24.6413 20.0055 24.8081 21.423L25.6741 28.7837C25.7386 29.3322 26.2356 29.7246 26.7841 29.6601C27.3326 29.5955 27.7249 29.0986 27.6604 28.5501L26.7944 21.1893C26.4686 18.4204 24.1219 16.3336 21.3339 16.3336H10.7799C7.52199 15.5688 4.95975 13.0472 4.14666 9.79485L3.63737 7.7577Z" fill="#FFFFFD"/>
</svg>
